<svg xmlns="http://www.w3.org/2000/svg" width="512" height="512"><path d="M362.621 194.901c-13.222 0-22.145 8.2-22.145 23.337 0 14.09 8.887 22.037 22.145 22.037s22.398-8.454 22.398-22.29c0-15.136-7.875-23.048-22.398-23.048zM512 243.345c0-9.356-9.898-15.353-22.145-19.182l.253-.253s-.723-.072-1.879-.253a105 105 0 0 0-6.032-1.59c-2.746-1.011-5.708-2.564-7.912-4.949-2.565-2.745-4.118-6.286-5.021-9.284-7.767-51.804-37.137-99.164-135.29-99.164h-170.44c-5.78-.18-21.422-1.084-58.56-5.166-35.98-3.938-68.204-15.281-68.493-15.39L4.87 76.807.933 110.331c-.47 4.083-10.729 98.695 49.962 146.706v.542c-2.384 25.396 7.333 80.812 60.04 125.644 114.229 97.141 269.496 36.162 309.198-6.575 24.854-26.769 42.7-58.342 48.842-96.274.903-3.143 2.492-7.045 5.274-10.043 1.192-1.3 2.637-2.348 4.118-3.215 3.974-1.012 7.948-2.204 11.705-3.613 12.138-4.48 21.928-10.946 21.928-20.23ZM251.174 380.261c-101.946-7.84-135.073-63.725-144.32-102.416 0 0 19.94 5.383 45.987 8.96.072 0 7.044.975 7.189-.868.253-3.576-58.704-20.916-87.28-69.866-22.289-38.221-23.661-74.852-23.661-74.852 59.823 11.56 96.599 26.01 284.849 21.314 58.306 0 84.316 12.066 84.316 83.45 0 49.853-21.82 133.302-167.044 134.242z" style="stroke-width:0;fill:#a0a5aa;fill-opacity:1"/></svg>