<?xml version="1.0" encoding="UTF-8"?><svg id="Laag_1" xmlns="http://www.w3.org/2000/svg" viewBox="0 0 793.7 198.43"><defs><style>.cls-1{fill:#2491ff;stroke-width:0px;}</style></defs><path class="cls-1" d="m262.02,123.74c-1.25.67-3.57,1.16-6.95,1.16s-5.69-.48-7.04-1.16v-47.53c2.61-1.45,6.75-2.22,11.38-2.22l.77,7.91h.77c2.22-4.73,6.95-8.88,15.63-8.88,5.69,0,11.38,1.64,13.99,8.39h.77c2.03-4.53,6.75-8.39,15.34-8.39,7.23,0,15.72,2.6,15.72,18.52v32.19c-1.25.67-3.57,1.16-6.95,1.16s-5.69-.48-7.04-1.16v-29.68c0-5.02-1.64-8.2-7.14-8.2-4.82,0-7.62,2.51-9.26,5.5.1.87.19,2.89.19,4.92v27.46c-1.25.67-3.47,1.16-6.85,1.16s-5.59-.48-6.95-1.16v-29.68c0-5.02-1.64-8.2-7.14-8.2-4.92,0-7.62,2.51-9.26,5.5v32.38Z"/><path class="cls-1" d="m709.91,80.75c-.68-3.96-1.06-9.94-1.06-14.18v-16.97c6.17,0,10.71.96,13.99,2.8v68.87c-5.11,2.22-12.25,3.67-19.1,3.67-17.46,0-27.59-9.55-27.59-27.88,0-17.85,9.65-24.02,19.58-24.02,7.33,0,11.67,3.76,13.41,7.72h.77Zm-.87,8.97c-1.83-2.41-4.44-4.44-8.88-4.44-6.17,0-9.65,4.24-9.65,13.02,0,9.45,3.76,14.95,12.83,14.95,2.12,0,4.34-.29,5.69-.67v-22.86Z"/><path class="cls-1" d="m381.09,98.21c0,17.37-9.17,26.72-24.02,26.72s-24.02-8.88-24.02-26.72c0-15.82,9.74-25.18,24.02-25.18s24.02,8.78,24.02,25.18Zm-24.02,15.24c6.66,0,9.65-5.59,9.65-15.15,0-8.49-3.47-13.8-9.65-13.8s-9.65,5.31-9.65,13.8c0,9.55,3.28,15.15,9.65,15.15Z"/><path class="cls-1" d="m404.99,123.74c-1.25.67-3.57,1.16-6.95,1.16s-5.69-.48-7.04-1.16v-47.53c2.61-1.45,6.75-2.22,11.38-2.22l.77,7.91h.77c2.31-5.02,7.23-8.88,16.01-8.88,7.33,0,16.01,2.6,16.01,18.52v32.19c-1.25.67-3.57,1.16-6.95,1.16s-5.69-.48-7.04-1.16v-29.68c0-5.02-1.74-8.2-7.43-8.2-5.02,0-7.81,2.51-9.55,5.5v32.38Z"/><path class="cls-1" d="m460.45,103.52c.58,6.75,5.4,10.03,14.95,10.03,6.17,0,11.58-1.35,15.05-2.89.29,3.67-1.25,8.39-3.47,10.9-3.18,1.83-8.59,3.38-15.24,3.38-16.88,0-25.85-9.74-25.85-25.37s9.65-26.53,24.79-26.53c14.08,0,20.55,8.68,20.55,21.42,0,3.09-.58,6.56-1.45,9.07h-29.33Zm17.66-10.13c.77-5.02-1.06-9.94-8.01-9.94-5.98,0-9.65,3.86-10.03,9.94h18.04Z"/><path class="cls-1" d="m570.91,80.75c1.74-3.96,6.08-7.72,13.41-7.72,9.94,0,19.58,6.17,19.58,24.02s-10.13,27.88-27.59,27.88c-6.85,0-13.99-1.45-19.1-3.67V52.39c3.28-1.83,7.81-2.8,13.99-2.8v16.97c0,4.24-.39,10.23-1.06,14.18h.77Zm.1,31.84c1.35.39,3.57.67,5.69.67,9.07,0,12.83-5.5,12.83-14.95,0-8.78-3.47-13.02-9.65-13.02-4.44,0-7.04,2.03-8.88,4.44v22.86Z"/><path class="cls-1" d="m613.82,74.12c1.35-.68,3.67-1.16,7.04-1.16s5.69.48,6.95,1.16v49.63c-1.25.67-3.57,1.16-6.95,1.16s-5.69-.48-7.04-1.16v-49.63Z"/><path class="cls-1" d="m663.81,73.03c1.83,0,3.38.29,4.53.87,1.35,2.41,2.03,5.11,2.03,8.78,0,2.8-.39,4.53-.87,5.88-1.83-1.06-3.67-1.64-6.66-1.64-4.92,0-8.59,3.38-10.42,8.39v28.43c-1.25.67-3.57,1.16-6.95,1.16s-5.69-.48-7.04-1.16v-47.53c2.6-1.45,6.66-2.22,11.29-2.22l.97,8.88h.77c1.35-5.31,4.44-9.84,12.35-9.84Z"/><path class="cls-1" d="m539.54,72.96c-3.38,0-5.69.48-6.95,1.15v32.74c-1.83,3.06-4.63,5.64-9.84,5.64-5.79,0-7.62-3.25-7.62-8.32v-30.06c-1.35-.67-3.67-1.15-7.04-1.15s-5.69.48-6.95,1.15v32.55c0,15.77,8.78,18.35,16.3,18.35,8.88,0,12.59-2.72,14.71-7.5h.64c.02,9.64.04,9.68-.03,11.23-.31,6.36-5.28,9.27-14.32,9.27-5.92,0-11.11-1.28-14.44-2.75-.28,3.49,1.2,7.98,3.33,10.36,3.05,1.74,8.24,3.21,14.62,3.21,14.16,0,24.58-7.65,24.58-19.5,0-3,.01-22.78.02-33.4h0v-21.82c-1.35-.67-3.65-1.15-7.03-1.15Z"/><path class="cls-1" d="m171.25,82.3c-3.66,0-6.13,2.27-6.13,6.46,0,3.9,2.46,6.1,6.13,6.1s6.2-2.34,6.2-6.17c0-4.19-2.18-6.38-6.2-6.38Zm41.35,13.41c0-2.59-2.74-4.25-6.13-5.31l.07-.07s-.2-.02-.52-.07c-.55-.16-1.1-.31-1.67-.44-.76-.28-1.58-.71-2.19-1.37-.71-.76-1.14-1.74-1.39-2.57-2.15-14.34-10.28-27.45-37.45-27.45h-47.18c-1.6-.05-5.93-.3-16.21-1.43-9.96-1.09-18.88-4.23-18.96-4.26l-8.75-3.13-1.09,9.28c-.13,1.13-2.97,27.32,13.83,40.61v.15c-.66,7.03,2.03,22.37,16.62,34.78,31.62,26.89,74.6,10.01,85.59-1.82,6.88-7.41,11.82-16.15,13.52-26.65.25-.87.69-1.95,1.46-2.78.33-.36.73-.65,1.14-.89,1.1-.28,2.2-.61,3.24-1h0s0,0,0,0c3.36-1.24,6.07-3.03,6.07-5.6Zm-72.2,37.9c-28.22-2.17-37.39-17.64-39.95-28.35,0,0,5.52,1.49,12.73,2.48.02,0,1.95.27,1.99-.24.07-.99-16.25-5.79-24.16-19.34-6.17-10.58-6.55-20.72-6.55-20.72,16.56,3.2,26.74,7.2,78.85,5.9,16.14,0,23.34,3.34,23.34,23.1,0,13.8-6.04,36.9-46.24,37.16Z"/></svg>