<?xml version="1.0" encoding="UTF-8" standalone="no"?>
<svg
   id="Laag_1"
   viewBox="0 0 999.99998 1000"
   version="1.1"
   sodipodi:docname="moneybird-icon.svg"
   width="1000"
   height="1000"
   inkscape:version="1.3.2 (091e20e, 2023-11-25)"
   xmlns:inkscape="http://www.inkscape.org/namespaces/inkscape"
   xmlns:sodipodi="http://sodipodi.sourceforge.net/DTD/sodipodi-0.dtd"
   xmlns="http://www.w3.org/2000/svg"
   xmlns:svg="http://www.w3.org/2000/svg">
  <sodipodi:namedview
     id="namedview10"
     pagecolor="#ffffff"
     bordercolor="#666666"
     borderopacity="1.0"
     inkscape:showpageshadow="2"
     inkscape:pageopacity="0.0"
     inkscape:pagecheckerboard="true"
     inkscape:deskcolor="#d1d1d1"
     inkscape:zoom="0.81390953"
     inkscape:cx="372.27725"
     inkscape:cy="150.50813"
     inkscape:window-width="3360"
     inkscape:window-height="1776"
     inkscape:window-x="1792"
     inkscape:window-y="25"
     inkscape:window-maximized="1"
     inkscape:current-layer="Laag_1" />
  <defs
     id="defs1">
    <style
       id="style1">.cls-1{fill:#2491ff;stroke-width:0px;}</style>
  </defs>
  <path
     class="cls-1"
     d="m 708.24472,380.66632 c -25.82405,0 -43.25176,16.01656 -43.25176,45.58015 0,27.51743 17.35715,43.04008 43.25176,43.04008 25.8946,0 43.74565,-16.51045 43.74565,-43.53398 0,-29.5636 -15.38153,-45.01569 -43.74565,-45.01569 z m 291.75526,94.61762 c 0,-18.27439 -19.3327,-29.98694 -43.2517,-37.46603 l 0.4939,-0.49391 c 0,0 -1.4112,-0.14111 -3.669,-0.4939 -3.8807,-1.12892 -7.7613,-2.18728 -11.7831,-3.10453 -5.3624,-1.97561 -11.1481,-5.00958 -15.4521,-9.66638 -5.00958,-5.36237 -8.04355,-12.27701 -9.80749,-18.13328 C 901.36062,304.74644 843.99737,212.24554 652.29261,212.24554 H 319.40228 c -11.2892,-0.35278 -41.84061,-2.11672 -114.37373,-10.08972 -70.27528,-7.69077 -133.212582,-29.84583 -133.777042,-30.0575 l -61.7378176,-22.0845 -7.690769,65.47737 c -0.91724798,7.973 -20.9555814,192.76312 97.5810366,286.53405 v 1.05836 c -4.6568,49.60193 14.323172,157.83715 117.266582,245.39902 223.10285,189.72915 526.35903,70.62807 603.90173,-12.84146 48.54357,-52.28312 83.39898,-113.95038 95.39376,-188.03577 1.76394,-6.1385 4.86847,-13.75871 10.3014,-19.61499 2.32839,-2.54007 5.15065,-4.58623 8.04355,-6.27961 7.7613,-1.97562 15.5227,-4.30401 22.8606,-7.05576 v 0 c 0,0 0,0 0,0 23.7074,-8.74913 42.8284,-21.37892 42.8284,-39.5122 z M 490.5748,742.69691 C 291.4615,727.38593 226.76027,618.23346 208.69754,542.66637 c 0,0 38.94775,10.51306 89.81971,17.49826 0.14112,0 13.75872,1.90505 14.04095,-1.69338 0.4939,-6.9852 -114.65596,-40.8528 -170.46695,-136.45823 C 98.557268,347.36318 95.876078,275.81786 95.876078,275.81786 c 116.843242,22.5784 188.670792,50.80141 556.345972,41.62893 113.87983,0 164.68123,23.56621 164.68123,162.98785 0,97.36937 -42.61673,260.35722 -326.25792,262.19171 z"
     id="path10" />
</svg>
