<?xml version="1.0" encoding="UTF-8" standalone="no"?>
<svg
   id="Laag_1"
   viewBox="0 0 511.99999 512"
   version="1.1"
   sodipodi:docname="moneybird-icon-wp-admin-fresh-base.svg"
   width="512"
   height="512"
   inkscape:version="1.3.2 (091e20e, 2023-11-25)"
   xmlns:inkscape="http://www.inkscape.org/namespaces/inkscape"
   xmlns:sodipodi="http://sodipodi.sourceforge.net/DTD/sodipodi-0.dtd"
   xmlns="http://www.w3.org/2000/svg"
   xmlns:svg="http://www.w3.org/2000/svg">
  <sodipodi:namedview
     id="namedview10"
     pagecolor="#ffffff"
     bordercolor="#666666"
     borderopacity="1.0"
     inkscape:showpageshadow="2"
     inkscape:pageopacity="0.0"
     inkscape:pagecheckerboard="true"
     inkscape:deskcolor="#d1d1d1"
     inkscape:zoom="0.81390953"
     inkscape:cx="372.89157"
     inkscape:cy="150.50813"
     inkscape:window-width="3360"
     inkscape:window-height="1776"
     inkscape:window-x="1792"
     inkscape:window-y="25"
     inkscape:window-maximized="1"
     inkscape:current-layer="Laag_1" />
  <defs
     id="defs1">
    <style
       id="style1">.cls-1{fill:#2491ff;stroke-width:0px;}</style>
  </defs>
  <path
     class="cls-1"
     d="m 362.6213,194.90115 c -13.22191,0 -22.1449,8.20048 -22.1449,23.33704 0,14.08893 8.88686,22.03652 22.1449,22.03652 13.25804,0 22.39778,-8.45335 22.39778,-22.28939 0,-15.13657 -7.87535,-23.04804 -22.39778,-23.04804 z M 512,243.34538 c 0,-9.35649 -9.89834,-15.35332 -22.14487,-19.18261 l 0.25288,-0.25288 c 0,0 -0.72254,-0.0722 -1.87853,-0.25288 -1.98692,-0.57801 -3.97379,-1.11989 -6.03295,-1.58952 -2.74555,-1.01151 -5.70783,-2.5649 -7.91147,-4.94918 -2.56491,-2.74554 -4.1183,-6.28583 -5.02144,-9.28424 -7.76697,-51.8039 -37.13696,-99.16436 -135.2898,-99.16436 H 163.53396 c -5.78007,-0.18062 -21.42239,-1.08376 -58.55935,-5.16593 C 68.993667,99.566097 36.769767,88.222707 36.480763,88.114327 L 4.870999,76.807067 0.93332517,110.33148 C 0.46369418,114.41366 -9.795933,209.02621 50.894818,257.03692 v 0.54188 c -2.384282,25.39619 7.333464,80.81263 60.040492,125.64431 114.22867,97.14133 269.49584,36.16157 309.1977,-6.57483 24.85431,-26.76896 42.70028,-58.3426 48.84161,-96.27432 0.90313,-3.14291 2.49265,-7.04446 5.27431,-10.04287 1.19214,-1.30052 2.63714,-2.34815 4.1183,-3.21516 3.97379,-1.01152 7.94762,-2.20366 11.70463,-3.61255 v 0 c 0,0 0,0 0,0 C 502.21005,259.02382 512,252.55737 512,243.27313 Z M 251.1743,380.26082 C 149.22828,372.4216 116.10125,316.53554 106.85314,277.84518 c 0,0 19.94124,5.38269 45.98769,8.95911 0.0722,0 7.04446,0.97539 7.18897,-0.86701 0.25287,-3.57642 -58.70386,-20.91663 -87.279087,-69.86661 -22.2894,-38.22072 -23.66217,-74.85193 -23.66217,-74.85193 59.823747,11.56014 96.599447,26.01032 284.849147,21.31401 58.30648,0 84.3168,12.0659 84.3168,83.44979 0,49.85312 -21.81977,133.3029 -167.04406,134.24216 z"
     id="path10"
     style="fill:#a0a5aa;fill-opacity:1" />
</svg>
